# xmcd
#
# Track frame offsets:
#	150
#	13328
#	31214
#	41258
#	54501
#	66917
#	83311
#	111558
#	131817
#	156714
#	171506
#	188537
#	199873
#	211523
#	223078
#
# Disc length: 3486 seconds
#
# Revision: 1
# Processed by: cddbd v1.4PL0 Copyright (c) Steve Scherf et al.
# Submitted via: audiograbber 1.80.04
#
DISCID=d70d9c0f
DTITLE=Various Artist - Soul Volume 3
DYEAR=2001
DGENRE=Soul
TTITLE0=Sam and Dave - (Sittin' On The) Dock Of The Bay
TTITLE1=Lou Rawls - You'll Never Find Another Love Like Mine (live)
TTITLE2=The Drifters - Up On The Roof
TTITLE3=Ike and Tina Turner - Nutbush City Limits
TTITLE4=Teddy Pendergrass - Nine Times Out Of Ten
TTITLE5=Harold Burrage - Got To Find A Way
TTITLE6=The Dells - Stay In My Corner
TTITLE7=Marvin Gaye - Sexual Healing (live)
TTITLE8=Rose Royce - Love Don't Live Here Any More (live)
TTITLE9=Percy Sledge - Warm And Tender Love
TTITLE10=The Temptations - Just My Imagination (Running Away With Me)
TTITLE11=Betty Harris - Nearer To You
TTITLE12=The Drifters - Under The Boardwalk
TTITLE13=Tom Jones and Gladys Knight - Guilty
TTITLE14=Curtis Mayfield - Move On Up (live)
EXTD=
EXTT0=
EXTT1=
EXTT2=
EXTT3=
EXTT4=
EXTT5=
EXTT6=
EXTT7=
EXTT8=
EXTT9=
EXTT10=
EXTT11=
EXTT12=
EXTT13=
EXTT14=
PLAYORDER=
